<?xml version="1.0" standalone="no"?>
<!DOCTYPE svg PUBLIC "-//W3C//DTD SVG 20010904//EN"
 "http://www.w3.org/TR/2001/REC-SVG-20010904/DTD/svg10.dtd">
<svg version="1.0" xmlns="http://www.w3.org/2000/svg"
 width="1127.000000pt" height="1125.000000pt" viewBox="0 0 1127.000000 1125.000000"
 preserveAspectRatio="xMidYMid meet">

<g transform="translate(0.000000,1125.000000) scale(0.100000,-0.100000)"
fill="#000000" stroke="none">
<path d="M5020 9934 c-52 -8 -128 -24 -168 -35 -102 -27 -276 -106 -343 -156
-31 -23 -92 -59 -135 -81 -367 -183 -637 -449 -831 -820 -70 -134 -154 -378
-177 -514 l-7 -38 -99 0 c-176 0 -297 -54 -404 -180 -58 -68 -90 -132 -117
-235 -32 -126 -11 -268 63 -407 45 -86 172 -213 268 -268 41 -24 77 -45 79
-47 3 -2 -5 -31 -17 -66 -63 -180 -97 -331 -130 -579 l-7 -56 -91 39 c-115 49
-210 69 -330 69 -195 0 -197 -22 -39 -336 63 -126 115 -239 115 -252 0 -64
-85 -134 -210 -173 -127 -39 -148 -21 -282 249 -85 171 -121 222 -154 222 -31
0 -77 -58 -124 -154 -62 -129 -80 -212 -80 -367 0 -144 15 -212 72 -321 79
-152 218 -248 442 -307 126 -33 174 -56 205 -99 40 -57 132 -233 195 -375 l67
-149 -31 -49 c-79 -129 -61 -274 48 -386 l42 -44 -10 -112 c-5 -62 -10 -177
-10 -257 0 -635 178 -1139 530 -1500 49 -51 90 -93 90 -94 0 0 -39 -41 -86
-89 -99 -103 -148 -191 -163 -298 -44 -312 250 -454 536 -258 75 52 130 106
216 214 44 55 83 99 86 98 3 -1 49 -18 101 -38 218 -82 446 -136 757 -177 145
-20 212 -23 483 -22 293 0 328 2 495 28 235 36 372 66 525 114 69 22 136 44
150 47 14 4 59 23 101 42 l76 34 89 -88 c153 -151 316 -227 479 -226 136 0
248 62 291 160 24 53 24 183 1 248 -23 66 -117 187 -192 247 -33 27 -61 52
-62 56 -1 4 27 41 63 82 88 100 170 223 234 350 60 120 141 358 170 499 38
191 68 546 71 839 1 141 6 161 35 133 18 -19 195 -72 258 -78 252 -23 394 212
257 425 -76 119 -255 236 -422 277 -36 9 -71 20 -79 25 -11 7 -10 40 4 202 39
460 45 991 15 1382 -7 105 -7 157 2 210 32 190 -41 464 -175 660 -26 37 -46
69 -44 70 2 1 17 10 33 21 157 96 294 271 324 413 18 84 14 191 -10 268 -36
116 -104 195 -221 256 -61 32 -67 33 -178 33 -106 0 -120 -2 -177 -29 -50 -23
-70 -27 -100 -21 -53 9 -83 31 -83 60 0 38 -39 228 -65 319 -34 116 -116 304
-180 412 -195 327 -514 595 -870 732 -44 17 -107 48 -140 70 -133 89 -297 147
-499 177 -129 19 -396 18 -526 -1z m600 -143 c282 -58 464 -202 597 -473 33
-66 54 -120 109 -283 52 -151 119 -500 138 -707 l5 -58 -177 0 c-181 0 -560
-15 -643 -26 l-46 -5 -7 61 c-28 249 -122 589 -225 819 -135 299 -326 501
-547 576 l-93 33 42 16 c194 73 610 96 847 47z m-806 -224 c239 -109 436 -392
544 -782 67 -237 131 -539 119 -552 -2 -2 -73 -12 -158 -23 -246 -31 -630 -96
-835 -140 -358 -78 -489 -109 -533 -125 -24 -8 -49 -15 -56 -15 -7 0 -39 35
-71 77 -73 95 -167 173 -263 220 l-73 35 7 54 c6 49 51 208 90 314 69 193 251
460 423 621 152 143 362 278 507 326 95 32 216 28 299 -10z m1503 -78 c92 -39
266 -165 367 -266 204 -202 341 -430 430 -712 25 -79 71 -290 64 -295 -1 -2
-68 5 -148 16 -80 10 -210 22 -290 26 l-145 7 -3 45 c-7 140 -49 395 -93 573
-54 220 -116 393 -188 534 -26 51 -47 93 -45 93 1 0 24 -9 51 -21z m-2862
-1357 c140 -51 270 -173 347 -327 22 -44 47 -88 56 -97 23 -27 78 -23 97 5 14
21 14 28 0 60 -8 20 -15 39 -15 43 0 7 -8 8 315 -45 395 -65 897 -124 1405
-163 228 -18 1053 -17 1220 0 107 12 356 55 441 77 28 7 16 23 162 -219 37
-61 65 -111 63 -113 -2 -2 -34 14 -72 36 -222 127 -541 148 -789 52 -222 -86
-437 -311 -516 -539 -71 -206 -62 -438 26 -654 6 -15 2 -18 -28 -18 -168 0
-330 -107 -357 -235 -4 -23 -19 -37 -65 -63 -78 -44 -120 -85 -152 -150 -57
-116 -36 -261 49 -337 44 -40 110 -74 144 -75 20 0 22 -7 28 -112 9 -142 26
-202 72 -256 50 -58 84 -74 163 -74 74 0 107 10 156 48 32 24 35 25 65 9 37
-19 125 -22 175 -5 19 6 52 32 74 56 47 53 57 93 66 265 l7 117 38 6 c95 15
180 128 180 239 0 57 1 59 23 53 114 -31 329 -32 441 -1 106 29 236 92 312
151 78 59 191 183 217 236 15 31 15 30 22 -58 13 -152 -2 -817 -24 -1094 -29
-362 -49 -719 -56 -980 -14 -532 -42 -774 -121 -1040 -48 -159 -68 -211 -123
-317 -211 -401 -614 -701 -1173 -872 -248 -76 -449 -109 -797 -132 -318 -20
-773 24 -1071 102 -483 128 -785 289 -1042 557 -197 206 -345 490 -412 792
-51 234 -61 327 -61 612 0 146 3 269 6 273 4 3 33 3 64 -2 l57 -8 85 -185
c251 -550 290 -627 342 -683 56 -60 100 -83 181 -96 112 -18 206 13 292 96 93
92 121 226 75 363 -14 41 -102 234 -196 429 l-171 354 26 53 c52 107 40 227
-32 326 -42 59 -95 95 -181 123 l-67 21 -33 80 c-19 43 -75 164 -126 269 -87
180 -92 193 -92 255 0 60 6 77 68 209 95 200 114 303 82 453 -19 90 -96 237
-161 307 l-52 56 9 90 c16 168 40 296 84 451 24 84 49 162 55 173 9 18 12 19
41 4 62 -31 119 -8 119 48 0 32 -33 62 -88 80 -20 6 -67 26 -104 44 -241 119
-372 297 -370 506 2 191 100 327 277 386 63 20 246 12 320 -15z m3350 -3 c244
-17 366 -38 547 -95 88 -28 148 -72 148 -109 0 -48 -85 -92 -255 -130 -138
-32 -433 -66 -655 -75 -207 -9 -756 1 -865 15 -22 3 -128 12 -235 20 -295 23
-609 53 -765 75 -286 41 -450 68 -435 72 8 3 65 15 125 26 61 12 175 35 255
51 158 33 625 102 840 125 124 14 397 32 595 40 123 5 544 -4 700 -15z m929
-44 c198 -60 277 -270 180 -483 -32 -71 -74 -124 -153 -188 -67 -56 -81 -63
-81 -41 0 7 -22 50 -50 97 -27 47 -50 90 -50 95 0 6 15 17 34 23 50 18 96 65
96 96 0 32 -32 66 -62 66 -13 0 -50 -18 -82 -40 l-60 -39 -17 27 c-16 26 -16
28 4 42 127 89 161 193 97 293 -21 33 -26 49 -17 52 54 18 102 18 161 0z
m-614 -716 c171 -21 318 -90 442 -207 85 -80 137 -155 182 -261 48 -111 60
-178 60 -326 0 -153 -18 -225 -92 -369 -48 -94 -143 -201 -230 -260 -55 -38
-215 -102 -291 -117 -142 -28 -382 8 -456 68 -60 48 -149 103 -166 103 -12 0
-21 10 -24 28 -9 43 -35 88 -69 120 -32 31 -102 72 -122 72 -6 0 -25 33 -43
73 -128 295 -55 648 180 873 120 114 241 174 399 199 109 17 128 17 230 4z
m-4325 -972 c128 -44 173 -72 267 -163 73 -72 135 -191 150 -289 16 -104 -4
-188 -87 -360 -60 -126 -68 -148 -72 -217 -7 -99 1 -123 132 -398 58 -121 105
-222 105 -225 0 -3 -10 -5 -22 -5 -70 -1 -256 -63 -340 -114 l-57 -34 -52 117
c-29 64 -77 163 -107 221 -114 218 -156 254 -364 308 -191 50 -284 110 -355
230 -57 96 -73 156 -73 273 0 118 12 181 54 272 l31 70 72 -147 c134 -272 205
-314 415 -246 116 37 194 87 238 152 29 42 35 61 38 118 l4 67 -101 198 c-56
109 -101 200 -101 203 0 13 163 -9 225 -31z m3787 -550 c102 -70 137 -156 96
-237 -38 -74 -65 -83 -238 -74 -211 9 -263 6 -385 -24 -138 -33 -244 -36 -295
-6 -51 30 -80 78 -80 133 1 92 50 156 153 200 l48 21 47 -24 c89 -45 157 -59
261 -53 105 5 176 27 251 76 25 16 53 30 62 30 9 1 45 -18 80 -42z m-134 -433
c19 -4 22 -10 22 -57 0 -28 -4 -90 -10 -137 -11 -100 -34 -130 -99 -130 -72 0
-76 9 -79 183 l-4 154 74 -4 c40 -2 83 -6 96 -9z m-280 -126 c1 -68 -2 -141
-7 -163 -17 -68 -85 -99 -150 -68 -54 27 -72 74 -79 203 l-5 108 70 12 c39 6
90 17 114 24 24 8 47 12 50 10 3 -2 7 -59 7 -126z m-2718 -690 c143 -42 199
-161 136 -286 -75 -148 -340 -268 -532 -241 -179 25 -277 155 -214 283 89 185
396 308 610 244z m4531 -49 c212 -69 359 -197 359 -312 0 -28 -7 -61 -17 -79
-22 -36 -80 -68 -125 -68 -57 0 -158 29 -244 70 l-84 39 6 113 c9 204 15 258
28 258 7 0 42 -9 77 -21z m-4331 -554 c0 -2 41 -89 91 -192 209 -432 216 -450
203 -528 -19 -114 -99 -185 -209 -185 -61 0 -116 22 -151 62 -29 33 -58 86
-114 207 -26 59 -78 171 -115 251 -131 282 -155 341 -142 345 7 2 43 11 81 20
82 19 195 70 251 113 l39 30 33 -59 c18 -33 33 -61 33 -64z m3696 -2030 c74
-74 111 -130 125 -190 15 -68 5 -117 -32 -160 -81 -92 -227 -84 -409 24 -57
34 -190 154 -190 171 0 3 39 27 87 55 48 27 133 82 188 122 l100 71 40 -21
c22 -12 63 -44 91 -72z m-3713 -38 c107 -70 216 -133 245 -142 22 -6 22 -7
-20 -67 -55 -78 -190 -205 -259 -243 -46 -25 -65 -30 -126 -30 -57 0 -77 4
-100 21 -117 87 -80 271 87 436 44 43 82 78 86 78 3 0 43 -24 87 -53z"/>
<path d="M3253 7735 c-23 -16 -30 -58 -15 -82 4 -7 34 -22 67 -33 111 -38 156
-75 200 -160 25 -50 55 -80 80 -80 29 0 65 40 65 72 0 33 -66 133 -123 185
-91 84 -227 132 -274 98z"/>
<path d="M4670 7471 c-329 -72 -582 -301 -703 -636 -37 -104 -51 -208 -44
-338 6 -123 22 -193 68 -307 139 -339 466 -566 845 -587 138 -7 248 8 371 52
308 110 531 345 623 655 31 107 39 305 15 420 -48 234 -168 431 -348 566 -86
64 -236 137 -337 164 -122 32 -370 38 -490 11z m315 -111 c260 -29 476 -160
624 -378 113 -167 151 -411 97 -624 -26 -104 -48 -152 -109 -243 -130 -192
-286 -302 -513 -361 -88 -23 -112 -25 -219 -20 -231 9 -407 83 -569 235 -79
76 -142 166 -186 269 -87 202 -89 382 -8 597 44 118 93 192 197 295 70 69 105
95 186 137 172 88 311 114 500 93z"/>
<path d="M5233 6756 c-186 -40 -262 -271 -142 -434 39 -53 95 -83 169 -89 72
-7 121 9 172 55 45 41 66 76 84 147 25 91 -11 214 -78 270 -62 52 -126 68
-205 51z m181 -182 c9 -8 16 -24 16 -35 0 -20 -33 -59 -50 -59 -17 0 -50 39
-50 59 0 20 34 51 57 51 6 0 19 -7 27 -16z"/>
<path d="M7336 6786 c-52 -20 -91 -59 -126 -130 -86 -172 24 -377 202 -376
119 1 204 77 238 213 24 92 -27 218 -109 273 -50 33 -145 42 -205 20z m202
-172 c12 -8 22 -26 22 -38 0 -54 -77 -64 -95 -12 -8 24 -6 31 14 47 28 23 31
23 59 3z"/>
<path d="M3690 3423 c-32 -12 -70 -58 -76 -91 -17 -89 86 -167 168 -128 74 35
89 130 30 188 -29 29 -89 45 -122 31z"/>
</g>
</svg>
